<?xml version="1.0" standalone="no"?>
<!DOCTYPE svg PUBLIC "-//W3C//DTD SVG 20010904//EN"
 "http://www.w3.org/TR/2001/REC-SVG-20010904/DTD/svg10.dtd">
<svg version="1.0" xmlns="http://www.w3.org/2000/svg"
 width="180.000000pt" height="180.000000pt" viewBox="0 0 180.000000 180.000000"
 preserveAspectRatio="xMidYMid meet">
<metadata>
Created by potrace 1.14, written by Peter Selinger 2001-2017
</metadata>
<g transform="translate(0.000000,180.000000) scale(0.100000,-0.100000)"
fill="#000000" stroke="none">
<path d="M698 1790 c-2 -4 -19 -11 -39 -14 -112 -17 -283 -118 -400 -235 -111
-111 -182 -227 -230 -376 -32 -100 -39 -350 -13 -462 10 -43 19 -84 20 -90 5
-30 87 -185 119 -227 19 -25 35 -49 35 -51 0 -8 153 -155 160 -155 4 0 18 -9
31 -21 33 -29 170 -97 239 -119 97 -31 202 -43 328 -38 64 3 129 10 143 16 14
6 39 13 55 15 99 17 254 104 367 206 108 96 222 278 252 401 41 164 46 338 15
460 -10 38 -15 71 -12 74 3 4 0 6 -7 6 -7 0 -10 4 -7 9 9 14 -88 202 -135 261
-80 102 -241 240 -278 240 -6 0 -11 5 -11 10 0 6 -3 9 -7 8 -5 0 -35 11 -67
26 -114 52 -157 60 -363 62 -105 2 -193 -1 -195 -6z"/>
</g>
</svg>
